<svg width="41" height="40" viewBox="0 0 41 40" fill="none" xmlns="http://www.w3.org/2000/svg">
<g clip-path="url(#clip0_5_2)">
<path d="M20.5 40C31.5457 40 40.5 31.0457 40.5 20C40.5 8.9543 31.5457 0 20.5 0C9.4543 0 0.5 8.9543 0.5 20C0.5 31.0457 9.4543 40 20.5 40Z" fill="#E3E4FC"/>
<path fill-rule="evenodd" clip-rule="evenodd" d="M24.3357 15.457C23.3032 14.4723 21.9253 13.9359 20.4997 13.9579C17.8909 13.9579 15.6753 15.7179 14.8853 18.0879C14.4664 19.3298 14.4664 20.6746 14.8853 21.9165H14.889C15.6826 24.2828 17.8946 26.0428 20.5033 26.0428C21.85 26.0428 23.0061 25.6983 23.9021 25.0899V25.0874C24.9566 24.3893 25.6768 23.2907 25.9009 22.0488H20.4997V18.1981H29.9316C30.0492 18.8668 30.1043 19.5502 30.1043 20.23C30.1043 23.2714 29.0174 25.8428 27.1261 27.5844L27.1281 27.586C25.471 29.1145 23.1966 30 20.4997 30C16.7188 30 13.2613 27.8689 11.5637 24.4922C10.1454 21.6666 10.1454 18.3377 11.5637 15.5122C13.2613 12.1318 16.7188 10.0007 20.4997 10.0007C22.9835 9.97128 25.3828 10.9046 27.1906 12.6021L24.3357 15.457Z" fill="url(#paint0_linear_5_2)"/>
</g>
<defs>
<linearGradient id="paint0_linear_5_2" x1="30.1043" y1="30" x2="10.1805" y2="29.6764" gradientUnits="userSpaceOnUse">
<stop stop-color="#888BF4"/>
<stop offset="1" stop-color="#5151C6"/>
</linearGradient>
<clipPath id="clip0_5_2">
<rect width="41" height="40" fill="white"/>
</clipPath>
</defs>
</svg>
